<svg xmlns="http://www.w3.org/2000/svg" version="1.0" viewBox="9 2 46 62"><path fill="#ae9588" d="M30 3.9c-.5 1.1-1 7.7-1 14.8v12.7l-6-5.9c-3.4-3.3-7.5-8.1-9.3-10.7C10.1 9.4 9 8.9 9 12.5c0 4.9 3.2 10.1 11.1 18l7.9 8.1-3.5 3.4c-1.9 1.9-3.5 4.4-3.5 5.6 0 1.2-.9 3.3-2.1 4.8-3.3 4.2-.7 3 4.1-1.9 2.4-2.5 4.8-4.5 5.2-4.5.4 0 .8 2 .8 4.5s.5 4.5 1 4.5c.6 0 1 2 1 4.5s.5 4.5 1 4.5c.6 0 1-2 1-4.5s.5-4.5 1-4.5c.6 0 1-2 1-4.5s.4-4.5.8-4.5 2.8 2 5.2 4.5c4.8 4.9 7.4 6.1 4.1 1.9-1.2-1.5-2.1-3.6-2.1-4.8 0-1.2-1.6-3.7-3.5-5.6L36 38.6l7.9-8.1c7.9-7.9 11.1-13.1 11.1-18 0-3.6-1.1-3.1-4.7 2.3-1.8 2.6-5.9 7.4-9.3 10.7l-6 5.9V18.7C35 6.6 34.2 2 32 2c-.5 0-1.4.9-2 1.9zM12.5 58c-3.8 4-2.3 5.2 1.6 1.3 1.7-1.7 2.7-3.3 2.2-3.6-.6-.4-2.3.7-3.8 2.3zM47.7 55.7c-.8 1.2 5 6.9 6 5.9.4-.3-.7-2-2.4-3.7-1.7-1.7-3.3-2.7-3.6-2.2z"/></svg>