<svg xmlns="http://www.w3.org/2000/svg" viewBox="3 3 33.4 29.63"><g clip-path="url(#A)" fill="#88abc6" transform="translate(3 3)"><path d="M31.78 14.91l1.41-2.18.18-3.5-2.88-1.55-2.95-3.21-.09-2.22L23.2.38l-2.77 1-.49-.52-4.3-.86-3.52 2-2.4.14L5.92.93l-.8 3.19-1.06.28-1.29 5.73L0 15.25l1.57 4.51 2.58-4.4-.45-3.57 3.47-7.28 1.3.2 7.85-2.61 3.5.94 3.5 2.41 4.18.61 1.21 1.31a8.18 8.18 0 0 1 2 7.14l-1.31 6.55-4.81 4.15h0l-4.1 1.06-.79-1.87-2.82.05-3.3-.6-.41 3.94 4.63 1.84 2.93-2.11 1.91-.52 2.41.43 1.63-1.4 4.82-.91.83-5.24-.7-.8.12-4zM1.69 17.16l-.36-1.43 1.53-.47zM7.41 3.54l-1-1L6.59 2l2.83.9zm18.45 1.09l-1.12-.16L24 4l2.48-1.12zm-8.18 23.65l-.42-2.78 1.74-.05.29 1.55zm13-4.61L29 23.15l2.19-2zm-20.23 3.09c-.92.33-1.55-.54-2.35-.76a6.09 6.09 0 0 1-3.63-2.57c-.47-.29-.67 0-.67 0a4.49 4.49 0 0 0-.06-1.57c-.18-.35-.64 0-.64 0a2.25 2.25 0 0 1 .76-1.21c.31-.21.34-2 .43-2.42a4.26 4.26 0 0 1 1.32-1.89c.07 1.38-.17 4.18 1.45 5.32 1.11.79 1.6.06 3 1.24s1.3 3.49.38 3.81M28 15.24c-.05.45 0 1.07 0 1.32-.19 5.45-2.07 5.58-3 5.71-.7.09-1.62 0-1.35-.63a15.33 15.33 0 0 0 .69-4.85c0-2-.46-4.33-.76-4.14s0 3.13-.11 4.28c-.19 3.06-.55 4.1-1.26 4.79a2.85 2.85 0 0 1-3.42.16c-.5-.33 0-2.76.05-4.81.13-3.49-.41-5.76-.69-5.71s0 3.34-.23 6.76C17.75 21 18 22 15.47 22.18s-2.79-1.49-3-4.36c-.46-5.5.58-6.85.27-7.08-.49-.36-1 1.44-1.21 3.2a33 33 0 0 0 .31 6.32s.24 1.2-2.07 1.07c-3.09-.17-3.56-.8-3.36-6.89.05-.48-.27-1-.7-.6a1.38 1.38 0 0 1 .1-1.44c.73-1 1-2 .07-2.09.21-.93 1.07-.89 1.32-1.37.33-.64.27-1.06 1.07-1.78s2-.71 2.21-1.47a3.19 3.19 0 0 0 2.8.49 13.73 13.73 0 0 1 4.11-1.59 2 2 0 0 0 1.57 1.3 3.84 3.84 0 0 0 1.25-.13 1.74 1.74 0 0 0 1.63 1c1.53.14 2.05 1.3 2.53 1.56a4 4 0 0 0 2 .2 1.91 1.91 0 0 1 1.43.56c-.22.06-.91.24-.93.59.15.33 1.22.49 1.65 1.9 0 0-.45-.3-.66.55a1.05 1.05 0 0 0 0 .31 2.68 2.68 0 0 1 .05.3c.17.71.77 1.46.81 1.91a1.31 1.31 0 0 0-.68.56"/></g></svg>