<svg xmlns="http://www.w3.org/2000/svg" fill="#FFFFFF" width="800" height="800" viewBox="0 0 569.613 569.614" xmlns:v="https://vecta.io/nano"><path d="M371.49 563.638l113.052-65.854c5.26-3.063 9.088-8.094 10.64-13.975a22.95 22.95 0 0 0-2.359-17.405l-30.769-52.807c4.789-6.524 9.083-13.115 12.972-19.918s7.405-13.84 10.606-21.275l61.114-.221a22.95 22.95 0 0 0 16.202-6.781 22.96 22.96 0 0 0 6.665-16.255l-.48-130.833a22.96 22.96 0 0 0-6.784-16.206c-4.299-4.269-10.113-6.662-16.166-6.662h-.089l-61.182.242c-6.444-14.462-14.428-28.14-23.871-40.913l30.417-53.143c6.294-11.001 2.481-25.025-8.52-31.316L369.403 5.335a22.98 22.98 0 0 0-17.424-2.231c-5.872 1.598-10.872 5.462-13.892 10.747L307.665 67c-15.766-1.662-31.653-1.613-47.363.144l-30.796-52.892c-3.063-5.263-8.094-9.091-13.975-10.646a22.95 22.95 0 0 0-17.408 2.359L85.068 71.823c-10.949 6.38-14.657 20.429-8.28 31.38l30.765 52.831c-4.761 6.484-9.048 13.076-12.953 19.899s-7.417 13.855-10.6 21.255l-61.139.235C10.187 197.472-.046 207.785 0 220.456L.48 351.29a22.96 22.96 0 0 0 6.784 16.206 22.94 22.94 0 0 0 16.166 6.661h.086l61.203-.229c6.432 14.452 14.413 28.131 23.868 40.915l-30.413 53.141a22.97 22.97 0 0 0-2.231 17.423 22.95 22.95 0 0 0 10.747 13.896l113.535 64.977a22.86 22.86 0 0 0 11.38 3.032c7.962 0 15.701-4.146 19.942-11.552l30.417-53.149c15.799 1.671 31.684 1.619 47.348-.144l30.799 52.89c3.066 5.26 8.094 9.088 13.978 10.643a22.93 22.93 0 0 0 17.401-2.362zm-30.361-97.727c-4.902-8.418-14.599-12.815-24.137-10.994-20.588 3.935-42.174 3.999-63.128.202-9.572-1.735-19.184 2.741-24.015 11.181l-26.748 46.745-73.694-42.18 26.75-46.741a22.95 22.95 0 0 0-2.521-26.371c-13.978-16.239-24.685-34.594-31.818-54.554-3.265-9.131-11.918-15.227-21.61-15.227h-.085l-53.825.199-.315-84.937 53.819-.205c9.722-.04 18.366-6.197 21.576-15.374 3.69-10.557 7.962-20.019 13.06-28.917 5.101-8.914 11.089-17.387 18.311-25.897 6.294-7.417 7.225-17.993 2.334-26.396l-27.081-46.509 73.385-42.754 27.078 46.497c4.893 8.4 14.544 12.821 24.095 11.004 20.716-3.911 42.317-3.978 63.189-.19 9.557 1.753 19.189-2.742 24.019-11.178l26.753-46.744 73.697 42.179-26.753 46.742a22.96 22.96 0 0 0 2.521 26.368c13.956 16.221 24.669 34.587 31.842 54.59 3.271 9.119 11.919 15.202 21.604 15.202h.092l53.789-.214.315 84.927-53.783.192c-9.712.037-18.351 6.182-21.569 15.347-3.746 10.654-8.023 20.131-13.082 28.975-5.064 8.847-11.067 17.338-18.356 25.958a22.95 22.95 0 0 0-2.305 26.368l27.078 46.472-73.391 42.749-27.091-46.515zm51.402-119.453c16.472-28.773 20.746-62.24 12.047-94.232s-29.342-58.685-58.115-75.151c-18.761-10.74-40.05-16.417-61.562-16.417-44.446 0-85.762 23.944-107.822 62.485-33.994 59.404-13.327 135.39 46.071 169.386 18.764 10.737 40.052 16.411 61.564 16.411 44.444.003 85.761-23.939 107.817-62.482zm-39.835-22.8c-13.902 24.293-39.955 39.385-67.985 39.385-13.528 0-26.934-3.58-38.764-10.349-37.433-21.426-50.456-69.312-29.033-106.751 13.905-24.291 39.958-39.385 67.987-39.385 13.528 0 26.932 3.58 38.762 10.355 18.136 10.379 31.142 27.197 36.628 47.359 5.48 20.163 2.784 41.252-7.595 59.386z"/></svg>