<svg xmlns="http://www.w3.org/2000/svg" viewBox="7.42 6.03 85.18 87.93"><g clip-path="url(#A)" fill="#c33e69" transform="matrix(11.012765 0 0 -11.012765 -1777.9263 2647.6407)"><path d="M168.445 234.598c-.282-.905-.728-1.33-1.278-1.668-.072-.045-.158.031-.122.109.286.628.497 1.381.433 2.18-.023.288-.063.529-.114.739.195.186.281.618.161.962-.128.364-.505.586-.816.52-.053.122-.1.248-.139.378.286.099.775-.037 1.115-.592.379-.617.317-1.44.222-1.989s.325-.441.388-.391-.201.019-.23.181.478 1.633-.198 2.702c-.412.651-1.162.7-1.426.7a3.23 3.23 0 0 0 0 .429c1.277-.058 2.359-1.348 2.226-3.063 0-.462.138-.641.138-.641s-.075-.391-.36-.556m-.864 5.108l-1.227-.116c-.085-.004-.157-.064-.178-.149a3.9 3.9 0 0 1-.101-1.135c.064-1.093.76-1.44.972-3.124.16-1.275-.461-2.476-.914-3.159-.044-.068.02-.155.097-.13 1.536.506 3.194 1.988 3.591 3.194.013.038.019.078.02.118.032 2.343-1.377 3.899-1.876 4.376-.102.098-.244.144-.384.125m-1.492-6c-.026-.36-.134-.697-.268-.988-.044-.095-.146-.15-.25-.134-1.189.189-1.441 1.102-1.882 1.929-.289.157-.374.543-.374.543s.133.18.121.639c-.162 1.561.691 2.875 1.671 3.105-.036-.116-.074-.291-.097-.408-.199-.095-.611-.301-.779-.86.126-.291.522-1.061 1.291-1.408.31-.732.632-1.522.567-2.418m-.685 4.179c-.032.527.141 1.152.349 1.59.032.069-.008.15-.082.166l-.837.207c-.142.039-.294-.004-.394-.112a9.28 9.28 0 0 1-2.306-4.361c-.019-.083-.011-.171.024-.249.731-1.637 2.081-2.719 3.361-3.182.11-.04.233.002.297.1.284.432.633 1.096.666 1.794.097 2.025-.999 2.714-1.078 4.047m-.229-2.547c.615-.795.112-1.418-.084-1.494-.128-.05-.278-.073-.458.108s-.145.434-.048.446.076-.329.325-.325c.133.002.333.229.108.723-.184.405-.936.498-1.145.976-.047.448-.001.829.094 1.15.189-.415.686-.908 1.208-1.584"/></g></svg>