<svg xmlns="http://www.w3.org/2000/svg" viewBox="2.98 3 28.8 33.17"><path d="M26.886 20.939l2.73-1.2a.19.19 0 0 0 0-.35l-2.73-1.21 4.84-6.62a.26.26 0 0 0-.23-.41l-8.16.85.32-3a.19.19 0 0 0-.3-.17l-2.41 1.83-3.31-7.51a.26.26 0 0 0-.47 0l-3.31 7.51-2.41-1.76a.19.19 0 0 0-.3.17l.32 3-8.16-.92a.26.26 0 0 0-.23.41l4.85 6.62-2.73 1.21a.19.19 0 0 0 0 .35l2.73 1.2-4.85 6.62a.26.26 0 0 0 .23.44l8.16-.89-.32 3a.19.19 0 0 0 .3.17l2.41-1.76 3.31 7.48a.26.26 0 0 0 .47 0l3.31-7.51 2.41 1.76a.19.19 0 0 0 .3-.17l-.32-3 8.16.89a.26.26 0 0 0 .23-.41zm-15.8.19a1.57 1.57 0 1 1 1.57-1.57 1.56 1.56 0 0 1-1.57 1.57m12.82 4a6.57 6.57 0 1 1 0-11.12 5.85 5.85 0 0 0 0 11.12" fill="#6fb54e"/></svg>