<svg xmlns="http://www.w3.org/2000/svg" viewBox="14.78 6.07 70.45 87.75"><defs><clipPath id="A"><path d="M162.084 232.081h7.298v9.088h-7.298z"></path></clipPath></defs><g clip-path="url(#A)" fill="#49a967" transform="matrix(9.693534 0 0 -9.693534 -1556.5376 2343.9983)"><path d="M168.139 236.749c-.027-.229-.622-.743-.946-.662s-1.095.825-.96.851c.825.163 1.014.568 1.176.501s.757-.46.73-.69m-1.785-1.61c-.028-.136-.307-.247-.388-.247s-.242.121-.433.091c-.095-.014-.397-.041-.423.183-.021.175.324 1.194.636 1.216.192.014.635-1.108.608-1.243m-3.028 1.61c-.027.23.568.622.729.69s.352-.338 1.177-.501c.135-.026-.636-.77-.96-.851s-.919.433-.946.662m5.569-.77c-.027.081-.027.324.189 1.865s-1.432 3.325-3.352 3.325a3.15 3.15 0 0 1-.79-.101c.205-.434.439-1.241.439-1.305 0-.075-.258-.443-.293-.494.03-.06.24-.402.349-.802.009-.031-.031-.051-.05-.027-.267.345-.805.6-1.001.685-.034.014-.042.058-.016.084a3.45 3.45 0 0 1 .362.419c-.191.505-.526.903-.683 1.073-1.09-.632-1.817-1.801-1.669-2.857l.19-1.865c-.027-.082-.487-.487-.46-.676.02-.14.172-.573.511-.943.302-.33.485-.355.53-.8l.053-.59a.56.56 0 0 1 .407-.502l.669-.167a6.43 6.43 0 0 1 2.885-.003l.689.17a.56.56 0 0 1 .407.502l.053.59c.045.445.228.47.529.8.339.37.492.803.512.943.027.189-.433.594-.46.676"></path></g></svg>