<svg xmlns="http://www.w3.org/2000/svg" viewBox="36.5 5.6 27.02 88.8"><defs><clipPath id="A"><path d="M163.858 230.2h3.75v12.35h-3.75z"></path></clipPath></defs><g clip-path="url(#A)" fill="#edbc47" transform="matrix(7.170234 0 0 -7.170234 -1138.3413 1744.864)"><path d="M164.895 238.975c-.016-.004-.024-.023-.016-.037.053-.097.221-.431.263-.843s-.04-.81-.067-.928c-.004-.017.009-.033.027-.032.198.017 1.186.046 2.499-.679.068 1.175-.49 2.02-.49 2.02s-1.336.742-2.216.499m1.575-2.358s.634-.161 1.073-.456c-.093-.507-.397-1.167-.405-1.733-.008-.537.135-1.126.266-1.352-.463.262-.838.928-1.035 1.851-.203.946.101 1.69.101 1.69m-.769-4.924l-.177.358-.984 6.961s.153.377.209.636c-.054.516-.485 2.35-.757 2.896-.004.009-.018.008-.02-.002-.155-.67-.108-2.244-.108-2.832.282-.394.36-.698.36-.698l1.081-7.17c-.001-.003-.027-.273-.043-.391 0 0 .191-.896.428-1.251.118.777.011 1.493.011 1.493"></path></g></svg>