<svg xmlns="http://www.w3.org/2000/svg" viewBox="19.93 6.58 61.88 83.02"><g clip-path="url(#A)" fill="#a28b7c" transform="matrix(9.188418 0 0 -9.188418 -1465.984 2223.4519)"><path d="M167.501 240.618c-.067.061-.178.25-.186.475-.003.066-.054.119-.12.122-.67.031-1.748-.369-2.62-2.287-1.183-2.602-1.582-4.747-2.2-5.437-.271-.302-.579-.526-.64-.699s.147-.364.246-.43.357-.181.492-.057.221.496.392.863c.391.839 2.208 2.051 4.136 4.161 1.257 1.376 1.358 2.432 1.162 3.076-.017.058-.075.096-.135.088-.228-.029-.423.031-.527.125"/><path d="M166.372 241.248c-.154-.04-.12-.397-.12-.397l.403.144s-.162.285-.283.253m-1.341-1.098c-.098-.125.146-.388.146-.388l.233.358s-.302.129-.379.03m-.787-1.373c-.063-.146.24-.338.24-.338l.134.406s-.325.047-.374-.068"/><use href="#B"/><path d="M163.215 235.924c-.065-.145.235-.341.235-.341l.14.404s-.324.051-.375-.063m-.529-1.432c-.064-.145.237-.34.237-.34l.137.405s-.324.05-.374-.065m5.751 5.395c.024-.157-.318-.266-.318-.266l-.026.426s.325-.036.344-.16"/><path d="M167.955 238.223c-.077-.139-.414-.019-.414-.019l.238.355s.236-.226.176-.336m-.953-1.263c-.11-.115-.406.088-.406.088l.322.282s.17-.279.084-.37"/><use href="#C"/><path d="M164.782 234.891c-.108-.117-.407.082-.407.082l.317.287s.175-.277.09-.369m-1.109-1.05c-.109-.116-.406.084-.406.084l.319.285s.173-.278.087-.369"/></g></svg>