<svg xmlns="http://www.w3.org/2000/svg" viewBox="23.75 5.65 52.48 88.57"><defs><clipPath id="A"><path d="M162.751 231.333h5.964v10.084h-5.964z"/></clipPath></defs><g clip-path="url(#A)" fill="#8c97a9" transform="matrix(8.768074 0 0 -8.768074 -1403.1592 2122.5549)"><path d="M167.574 234.166a.8.8 0 0 1-.338.418c-.095.059-.165.04-.07-.04.254-.203.305-.715.103-1.074-.232-.412-.698-.6-1.066-.405-.136.072-.246.213-.301.322-.108.216-.122.6.038.902.254.48.806.685 1.233.459a.83.83 0 0 0 .42-.577c.003-.012-.015-.017-.019-.005m-2.257-.783c-.054-.108-.164-.25-.3-.322-.368-.194-.834-.007-1.066.406-.202.358-.151.87.103 1.073.095.08.025.099-.07.041a.8.8 0 0 1-.338-.419c-.004-.011-.022-.007-.019.005.051.246.196.459.42.578.427.226.979.02 1.233-.459.16-.302.146-.687.037-.903m1.497 4.861c-.168.623-1.106.829-1.328 1.599-.156.543.247 1.242-.344 1.574.012-.836-.884-1.231-1.045-1.968-.178-.814.184-1.279.073-1.832-.14-.7-.701-1.169-1.094-2.042-.738-1.635-.344-4.17 2.472-4.24 3.074-.076 3.503 2.825 2.976 4.105-.603 1.463-1.168.799-1.71 2.804"/></g></svg>