<svg xmlns="http://www.w3.org/2000/svg" viewBox="2.98 2.93 23.52 35"><g clip-path="url(#A)" fill="#ad8f68" transform="translate(3 3)"><path d="M23.23 0l-4.66 3.59a.86.86 0 0 0-.33.52A4.84 4.84 0 0 0 19.58 9a2.51 2.51 0 0 0 1.18.56.78.78 0 0 0 .87-.6l1.81-8.8a.132.132 0 0 0-.21-.16m-6.41 5.35l-.89.73a5.79 5.79 0 0 0 .86 6c1.78 2.34 3.21 1.61 3.21 1.61l.4-1.56a3.76 3.76 0 0 1 .23 3c-.71 1.79-2.43 1.72-4.35.12S12.2 8.9 14.6 6.17a2.07 2.07 0 0 1 2.25-.78m-5.48 4.49l-1.14.95a10 10 0 0 0 2.48 9.68c3.39 3.64 5.05 1.79 5.05 1.79l.47-1.84a5.69 5.69 0 0 1 .21 4c-.83 2-3.4 2.2-6 .57s-7.29-7.75-4.32-13.6a2.78 2.78 0 0 1 3.29-1.58m-6.67 5.49l-1.92 1.58a13.85 13.85 0 0 0 4.47 11.76c5.45 4.92 8.4 1.77 8.4 1.77l.48-1.85a4.51 4.51 0 0 1-.24 4.31c-1.15 2.18-3.81 2.56-7.49 1.25-5.9-2.1-11.17-12.28-6.87-17.65a2.78 2.78 0 0 1 3.17-1.17"/></g></svg>