<svg xmlns="http://www.w3.org/2000/svg" viewBox="13.03 19.15 75.97 61.55"><defs><clipPath id="A"><path d="M160.965 232.848h9.535v7.555h-9.535z"></path></clipPath></defs><g clip-path="url(#A)" fill="#01b0db" transform="matrix(8.728589 0 0 -8.728588 -1395.6033 2115.3308)"><path d="M169.811 238.731a.66.66 0 0 1-.213-.009c-.125-.023-.244-.073-.351-.142l-1.519-.971-.55.86 2.217 1.417c.068.043.144.063.203.051.112-.022.286-.087.378-.275.139-.282.147-.62-.105-.91-.015-.017-.038-.024-.06-.021m-1.962-2.01h0c.075.046.097.144.05.218l-1.279 1.998c-.045.071-.139.092-.21.048s-.096-.141-.049-.214l1.275-2.001c.045-.072.14-.093.213-.049m-2.178-.522l-.942.274-.074.648-3.247-2.143c-.01-.006-.016-.017-.015-.028v-1.826c0-.013.015-.021.027-.014l4.28 2.822z"></path><path d="M166.656 236.562l.564.37-.838 1.329-.882-.583.125-.61z"></path><path d="M165.301 238.504l.106-1.579 1-.327.014-1.116c-.003-.013.015-.018.019-.005l.321 1.161-1.056.476-.384 1.395c-.004.012-.022.008-.02-.005m-.662-.366l.017-1.751.968-.268.094-1.03c0-.013.019-.015.02-.002l.181 1.247-.922.294-.338 1.511c-.001.013-.02.012-.02-.001m1.855-3.288c-.1-.144.413-.657.585-.822.007-.007.024.017.019.027-.114.249-.472.986-.604.795m.497.541c-.002-.175.711-.312.946-.352.009-.002.01.027 0 .033-.234.142-.944.552-.946.319"></path><path d="M165.854 234.607c-.171-.039-.139-.764-.124-1.002.001-.009.03-.003.033.008.083.26.318 1.045.091.994m-1.231 4.302c.103.142-.401.665-.57.833-.006.007-.023-.017-.019-.027.11-.251.453-.995.589-.806m-.507-.532c.005.175-.705.325-.939.37-.009.002-.01-.027-.001-.033.232-.146.933-.569.94-.337m1.152.762c.172.036.153.761.143.999-.001.01-.029.004-.033-.007-.088-.259-.338-1.039-.11-.992"></path></g></svg>