<svg xmlns="http://www.w3.org/2000/svg" viewBox="3 3 26.38 33.87"><g clip-path="url(#A)" fill="#c0d7e9" transform="translate(3 3)"><path d="M18.56 2.41L12.82 0l-4 3.67-.2 6.43 1.25 2.19.29 3.8 4.51 3a.17.17 0 0 0 .24 0l4.62-7.56zm-3.75 15.31l-.24-1.39a1.59 1.59 0 0 0-.56-1l-2.89-2.8-.42-1.36 3.68 2.58-.3-5.26 3.61-3.69 1 6.49zm8.43-4.51l-7.45 7.54c-.09.09 0 .24.14.21l4.78-1.3 4.46 1.09 1.21-4zm.26 4.27a1.69 1.69 0 0 1-1.06.79l-4.25 1.05L22.91 15l1.21 1.5zm-4.93 4.86l-3.37 1.15L13 22.3a.15.15 0 0 0-.25 0l-3.12 6.17 1.52 5 1.4.38 6.82-3 4.33-6.7zm0 7.74l-5.49 2.43c-.26.1-.53-.15-.4-.38l1.61-4.66a2.49 2.49 0 0 1 1.08-1.33L18 24.55l3.86.57zM9.6 19.85v-1.7L7.42 15.7v-2.46L4.28 10 0 19.41l4.39 5.67 2.12-.5 2.33 1 1.8-3.86zm-5-7.37L6 14l.22 2.26L8.66 19l-.57 1.26 1.12 1.69-1.6.15-1.24 1.23-1.79-2.26v-3.24L3.2 19.32l-.2-2.9a2.39 2.39 0 0 1 .22-1.15z"/></g></svg>